<svg width="120" height="120" viewBox="0 0 120 120" fill="none" xmlns="http://www.w3.org/2000/svg">
<rect x="1.74757" y="1.74757" width="116.505" height="116.505" rx="58.2524" fill="#25252B"/>
<rect x="1.74757" y="1.74757" width="116.505" height="116.505" rx="58.2524" stroke="#13F59E" stroke-width="3.49515"/>
<path d="M65.8697 80.3294C65.8494 78.7681 65.2149 77.2775 64.1036 76.1806C62.9923 75.0836 61.4937 74.4685 59.9322 74.4684C58.3707 74.4683 56.872 75.0833 55.7606 76.1802C54.6492 77.277 54.0146 78.7675 53.9941 80.3288C53.9941 82.6655 55.3453 84.9362 56.8349 86.7179C57.6794 87.7283 58.6179 88.6563 59.6378 89.4892C59.8966 89.6978 60.1706 89.5254 60.2167 89.4945L60.2278 89.4834C60.3254 89.3928 61.6935 88.0773 60.8003 86.3569C60.63 86.039 60.507 85.698 60.4352 85.3445C60.3067 84.6751 61.1701 84.2919 61.5784 84.8381C62.0088 85.4026 62.6173 85.8053 63.3052 85.9807C63.3814 86.0001 63.4617 85.9963 63.5357 85.9698C63.6097 85.9432 63.6741 85.8952 63.7206 85.8317C64.9117 84.2177 65.8697 82.2981 65.8697 80.3294ZM74.7094 61.9596L71.0904 58.3407C71.1516 57.5342 71.1829 56.7169 71.1845 55.8889L71.1862 53.5914C71.1839 44.9854 67.7683 37.3696 62.5183 32.7097C60.9738 31.3392 58.8901 31.3386 57.3449 32.7097C52.0979 37.3667 48.6782 44.9866 48.6788 53.5932L48.6788 55.8889C48.6788 56.7161 48.7103 57.5336 48.7734 58.3413L45.1545 61.9602C44.4155 62.7576 44.1795 63.8804 44.4453 64.9149L46.574 71.2988C46.6708 71.5076 46.7901 71.7052 46.9298 71.8882C47.2064 72.1582 47.5777 72.3093 47.9643 72.3093C48.3509 72.3093 48.7222 72.1582 48.9989 71.8882L51.6861 69.201C52.5097 70.7257 53.8977 71.6463 55.3897 71.6452L64.4718 71.6457C65.9632 71.6463 67.35 70.7245 68.1754 69.2016L70.8626 71.8888C71.1393 72.1588 71.5106 72.3099 71.8972 72.3099C72.2838 72.3099 72.6551 72.1588 72.9317 71.8888C73.0714 71.7058 73.1907 71.5082 73.2875 71.2993L75.415 64.9167C75.6843 63.881 75.4448 62.757 74.7094 61.9596ZM59.9316 52.1742C58.7313 52.1742 57.558 51.8182 56.56 51.1514C55.562 50.4845 54.7842 49.5367 54.3248 48.4278C53.8655 47.3188 53.7454 46.0986 53.9795 44.9214C54.2137 43.7442 54.7917 42.6628 55.6404 41.8141C56.4892 40.9653 57.5705 40.3873 58.7477 40.1532C59.925 39.919 61.1452 40.0392 62.2541 40.4985C63.3631 40.9578 64.3109 41.7357 64.9777 42.7336C65.6446 43.7316 66.0005 44.905 66.0006 46.1053C66.0006 46.9023 65.8436 47.6914 65.5386 48.4278C65.2336 49.1641 64.7866 49.8331 64.223 50.3967C63.6595 50.9602 62.9904 51.4073 62.2541 51.7123C61.5178 52.0173 60.7286 52.1742 59.9316 52.1742Z" fill="#13F59E"/>
</svg>
