<svg width="103" height="16" viewBox="0 0 103 16" fill="none" xmlns="http://www.w3.org/2000/svg">
<path d="M3.822 3.914H5.39L8.918 13H7.504L6.468 10.242H2.576L1.554 13H0.21L3.822 3.914ZM6.132 9.304L4.592 5.202H4.466L2.926 9.304H6.132ZM10.2248 6.224H11.4708V6.952H11.4848C11.5875 6.37333 12.3575 6.084 13.7948 6.084C14.6535 6.084 15.3021 6.266 15.7408 6.63C16.1795 6.98467 16.3988 7.442 16.3988 8.002V10.788C16.3988 11.1893 16.3381 11.5393 16.2168 11.838C16.1048 12.1367 15.9555 12.37 15.7688 12.538C15.6008 12.6967 15.3675 12.8227 15.0688 12.916C14.7795 13.0093 14.4901 13.07 14.2008 13.098C13.9395 13.126 13.6221 13.14 13.2488 13.14C12.8381 13.14 12.4601 13.0933 12.1148 13C11.7788 12.8973 11.5688 12.7527 11.4848 12.566V15.912H10.2248V6.224ZM13.2768 12.286C13.7621 12.286 14.1308 12.2533 14.3828 12.188C14.6441 12.1133 14.8308 11.9827 14.9428 11.796C15.0548 11.6093 15.1108 11.3247 15.1108 10.942V8.45C15.1108 8.03 15.0548 7.71733 14.9428 7.512C14.8308 7.30667 14.6441 7.17133 14.3828 7.106C14.1308 7.03133 13.7575 6.994 13.2628 6.994C12.7681 6.994 12.3995 7.03133 12.1568 7.106C11.9141 7.17133 11.7415 7.30667 11.6388 7.512C11.5361 7.708 11.4848 8.02067 11.4848 8.45V10.942C11.4848 11.3247 11.5361 11.6093 11.6388 11.796C11.7508 11.9827 11.9328 12.1133 12.1848 12.188C12.4368 12.2533 12.8008 12.286 13.2768 12.286ZM18.3322 6.224H19.5782V6.952H19.5922C19.6949 6.37333 20.4649 6.084 21.9022 6.084C22.7609 6.084 23.4096 6.266 23.8482 6.63C24.2869 6.98467 24.5062 7.442 24.5062 8.002V10.788C24.5062 11.1893 24.4456 11.5393 24.3242 11.838C24.2122 12.1367 24.0629 12.37 23.8762 12.538C23.7082 12.6967 23.4749 12.8227 23.1762 12.916C22.8869 13.0093 22.5976 13.07 22.3082 13.098C22.0469 13.126 21.7296 13.14 21.3562 13.14C20.9456 13.14 20.5676 13.0933 20.2222 13C19.8862 12.8973 19.6762 12.7527 19.5922 12.566V15.912H18.3322V6.224ZM21.3842 12.286C21.8696 12.286 22.2382 12.2533 22.4902 12.188C22.7516 12.1133 22.9382 11.9827 23.0502 11.796C23.1622 11.6093 23.2182 11.3247 23.2182 10.942V8.45C23.2182 8.03 23.1622 7.71733 23.0502 7.512C22.9382 7.30667 22.7516 7.17133 22.4902 7.106C22.2382 7.03133 21.8649 6.994 21.3702 6.994C20.8756 6.994 20.5069 7.03133 20.2642 7.106C20.0216 7.17133 19.8489 7.30667 19.7462 7.512C19.6436 7.708 19.5922 8.02067 19.5922 8.45V10.942C19.5922 11.3247 19.6436 11.6093 19.7462 11.796C19.8582 11.9827 20.0402 12.1133 20.2922 12.188C20.5442 12.2533 20.9082 12.286 21.3842 12.286ZM26.4397 3.2H27.6997V13H26.4397V3.2ZM31.495 13.098L28.877 6.224H30.249L32.139 11.754H32.167L33.875 6.224H35.149L31.747 15.912H30.431L31.495 13.098ZM39.635 3.914H45.879V4.866H40.993V7.834H45.417V8.786H40.993V13H39.635V3.914ZM50.255 13.14C49.6576 13.14 49.2096 13.1167 48.911 13.07C48.6123 13.0327 48.3136 12.944 48.015 12.804C47.707 12.664 47.483 12.44 47.343 12.132C47.203 11.8147 47.133 11.39 47.133 10.858V8.506C47.133 8.086 47.1843 7.71733 47.287 7.4C47.3896 7.08267 47.525 6.83533 47.693 6.658C47.833 6.49933 48.043 6.378 48.323 6.294C48.6123 6.20067 48.9063 6.14 49.205 6.112C49.541 6.09333 49.891 6.084 50.255 6.084C50.7403 6.084 51.1043 6.098 51.347 6.126C51.599 6.14467 51.865 6.19133 52.145 6.266C52.4343 6.35 52.6583 6.476 52.817 6.644C52.9756 6.812 53.111 7.05467 53.223 7.372C53.3256 7.69867 53.377 8.07667 53.377 8.506V10.858C53.377 11.6513 53.195 12.23 52.831 12.594C52.6816 12.7433 52.467 12.86 52.187 12.944C51.907 13.028 51.6176 13.084 51.319 13.112C50.9643 13.1307 50.6096 13.14 50.255 13.14ZM50.255 12.314C50.647 12.314 50.9316 12.3047 51.109 12.286C51.2863 12.2673 51.459 12.216 51.627 12.132C51.795 12.0573 51.9116 11.936 51.977 11.768C52.0516 11.5907 52.089 11.348 52.089 11.04V8.296C52.089 7.876 52.0376 7.57267 51.935 7.386C51.8323 7.19 51.655 7.064 51.403 7.008C51.1603 6.94267 50.7776 6.91 50.255 6.91C49.7323 6.91 49.345 6.94267 49.093 7.008C48.8503 7.064 48.6776 7.19 48.575 7.386C48.4723 7.57267 48.421 7.876 48.421 8.296V11.04C48.421 11.348 48.4536 11.5907 48.519 11.768C48.5936 11.936 48.715 12.0573 48.883 12.132C49.051 12.216 49.2236 12.2673 49.401 12.286C49.5783 12.3047 49.863 12.314 50.255 12.314ZM55.342 6.224H56.532V7.33C56.532 7.11533 56.6253 6.91467 56.812 6.728C56.9987 6.532 57.2367 6.378 57.526 6.266C57.8153 6.14467 58.1 6.084 58.38 6.084H58.996V7.162H58.296C57.6987 7.162 57.2647 7.24133 56.994 7.4C56.7327 7.54933 56.602 7.82467 56.602 8.226V13H55.342V6.224ZM66.2068 3.914H67.7748L71.3028 13H69.8888L68.8528 10.242H64.9608L63.9388 13H62.5948L66.2068 3.914ZM68.5168 9.304L66.9768 5.202H66.8508L65.3108 9.304H68.5168ZM72.6096 3.2H73.8696V13H72.6096V3.2ZM76.0549 3.2H77.3149V13H76.0549V3.2Z" fill="#EEFFF7"/>
<path d="M97.6162 14.6543H92.3837C91.6959 14.6543 90.8882 14.1881 90.5448 13.5926L87.9285 9.06221C87.5794 8.45715 87.5794 7.54384 87.9285 6.9383L90.5452 2.40791C90.8887 1.81236 91.6964 1.34619 92.3842 1.34619H97.6162C98.3041 1.34619 99.1118 1.81236 99.4552 2.40791L102.071 6.9383C102.421 7.54336 102.421 8.45667 102.071 9.06221L99.4547 13.5926C99.1118 14.1881 98.3036 14.6543 97.6162 14.6543ZM92.3837 2.29708C92.0294 2.29708 91.5456 2.5763 91.3686 2.88312L88.7519 7.4135C88.575 7.72032 88.575 8.27924 88.7519 8.58606L91.3682 13.1164C91.5456 13.4237 92.0294 13.7025 92.3833 13.7025H97.6162C97.9706 13.7025 98.4544 13.4233 98.6313 13.1164L101.248 8.58606C101.425 8.27924 101.425 7.72032 101.248 7.4135L98.6318 2.88312C98.4544 2.57583 97.9706 2.29708 97.6167 2.29708H92.3837ZM95 10.8141C93.4478 10.8141 92.1854 9.55169 92.1854 8.00002C92.1854 6.44834 93.4478 5.18589 95 5.18589C96.5521 5.18589 97.8146 6.44834 97.8146 8.00002C97.8146 9.55169 96.5521 10.8141 95 10.8141ZM95 6.13725C93.9725 6.13725 93.1367 6.97302 93.1367 8.00002C93.1367 9.02701 93.9725 9.86278 95 9.86278C96.0275 9.86278 96.8632 9.02701 96.8632 8.00002C96.8632 6.97302 96.0275 6.13725 95 6.13725Z" fill="#13F59E" stroke="#13F59E" stroke-width="0.5"/>
</svg>
