<svg width="155" height="13" viewBox="0 0 155 13" fill="none" xmlns="http://www.w3.org/2000/svg">
<path d="M5.534 12.18C4.982 12.18 4.49 12.156 4.058 12.108C3.638 12.06 3.194 11.97 2.726 11.838C2.198 11.694 1.754 11.514 1.394 11.298C1.034 11.07 0.74 10.764 0.512 10.38C0.272 9.972 0.152 9.516 0.152 9.012V3.486C0.152 2.814 0.326 2.238 0.674 1.758C1.022 1.278 1.502 0.929999 2.114 0.713999C2.702 0.509999 3.26 0.365999 3.788 0.282C4.328 0.185999 4.91 0.137999 5.534 0.137999C7.022 0.137999 8.366 0.233999 9.566 0.426V1.776C9.11 1.668 8.456 1.572 7.604 1.488C6.764 1.392 6.086 1.344 5.57 1.344C3.11 1.344 1.88 2.052 1.88 3.468V8.976C1.88 9.36 1.994 9.696 2.222 9.984C2.462 10.272 2.786 10.482 3.194 10.614C3.578 10.758 3.962 10.86 4.346 10.92C4.73 10.968 5.162 10.992 5.642 10.992C6.446 10.992 7.304 10.884 8.216 10.668V6.582H5.48V5.358H9.836V11.64C8.276 12 6.842 12.18 5.534 12.18ZM15.9023 0.317999H17.9183L22.4543 12H20.6363L19.3043 8.454H14.3003L12.9863 12H11.2583L15.9023 0.317999ZM18.8723 7.248L16.8923 1.974H16.7303L14.7503 7.248H18.8723ZM24.2425 0.317999H26.8525L30.5965 10.038L30.6505 10.056L34.1965 0.317999H36.7165V12H35.1865V2.118H35.0965L31.3345 12H29.7685L25.8985 2.118H25.8085V12H24.2425V0.317999ZM39.7464 0.317999H47.5944V1.542H41.4924V5.358H47.0004V6.582H41.4924V10.776H47.7744V12H39.7464V0.317999ZM54.3362 0.317999H58.5122C59.5082 0.317999 60.3002 0.419999 60.8882 0.623999C61.4282 0.815999 61.7882 1.056 61.9682 1.344C62.1602 1.632 62.2562 2.028 62.2562 2.532V4.098C62.2562 4.566 62.1242 4.932 61.8602 5.196C61.5962 5.448 61.1942 5.634 60.6542 5.754V5.826C61.2902 5.934 61.8002 6.156 62.1842 6.492C62.5802 6.816 62.7782 7.224 62.7782 7.716V9.678C62.7782 10.53 62.4602 11.13 61.8242 11.478C61.1882 11.826 60.1262 12 58.6382 12H54.3362V0.317999ZM58.5662 5.43C59.2982 5.43 59.8202 5.322 60.1322 5.106C60.4562 4.878 60.6182 4.524 60.6182 4.044V2.676C60.6182 2.232 60.4562 1.92 60.1322 1.74C59.8082 1.56 59.2682 1.47 58.5122 1.47H56.0822V5.43H58.5662ZM58.6382 10.794C59.5142 10.794 60.1322 10.704 60.4922 10.524C60.8522 10.344 61.0322 10.038 61.0322 9.606V7.842C61.0322 7.53 60.9662 7.284 60.8342 7.104C60.7142 6.912 60.5222 6.774 60.2582 6.69C59.9942 6.618 59.7602 6.576 59.5562 6.564C59.3522 6.54 59.0462 6.528 58.6382 6.528H56.0822V10.794H58.6382ZM69.9473 12.18C66.6833 12.18 65.0513 11.124 65.0513 9.012V3.486C65.0513 1.254 66.6833 0.137999 69.9473 0.137999C73.2473 0.137999 74.8973 1.248 74.8973 3.468V9.012C74.8973 10.14 74.4413 10.95 73.5293 11.442C72.6173 11.934 71.4233 12.18 69.9473 12.18ZM69.9833 11.01C72.1313 11.01 73.2053 10.338 73.2053 8.994V3.432C73.2053 1.992 72.1253 1.272 69.9653 1.272C68.9213 1.272 68.1173 1.434 67.5533 1.758C67.0013 2.082 66.7253 2.64 66.7253 3.432V8.994C66.7253 10.338 67.8113 11.01 69.9833 11.01ZM82.1641 12.18C78.9001 12.18 77.2681 11.124 77.2681 9.012V3.486C77.2681 1.254 78.9001 0.137999 82.1641 0.137999C85.4641 0.137999 87.1141 1.248 87.1141 3.468V9.012C87.1141 10.14 86.6581 10.95 85.7461 11.442C84.8341 11.934 83.6401 12.18 82.1641 12.18ZM82.2001 11.01C84.3481 11.01 85.4221 10.338 85.4221 8.994V3.432C85.4221 1.992 84.3421 1.272 82.1821 1.272C81.1381 1.272 80.3341 1.434 79.7701 1.758C79.2181 2.082 78.9421 2.64 78.9421 3.432V8.994C78.9421 10.338 80.0281 11.01 82.2001 11.01ZM92.6889 1.542H88.7289V0.317999H98.3949V1.542H94.4529V12H92.6889V1.542ZM100.338 0.317999H108.186V1.542H102.084V5.358H107.592V6.582H102.084V10.776H108.366V12H100.338V0.317999ZM110.78 0.317999H114.884C115.916 0.317999 116.72 0.383999 117.296 0.516C117.884 0.636 118.31 0.858 118.574 1.182C118.85 1.506 118.988 1.98 118.988 2.604V4.62C118.988 5.316 118.7 5.856 118.124 6.24C117.56 6.612 116.84 6.798 115.964 6.798L119.708 12H117.566L114.218 7.014H112.526V12H110.78V0.317999ZM114.812 5.862C115.676 5.862 116.294 5.76 116.666 5.556C117.05 5.34 117.242 4.956 117.242 4.404V2.784C117.242 1.908 116.486 1.47 114.974 1.47H112.526V5.862H114.812ZM126.301 0.317999H134.329V1.542H128.047V5.358H133.735V6.582H128.047V12H126.301V0.317999ZM136.373 0.317999H140.189C140.729 0.317999 141.161 0.329999 141.485 0.354C141.821 0.377999 142.175 0.431999 142.547 0.516C142.931 0.599999 143.237 0.725999 143.465 0.893999C143.705 1.062 143.909 1.29 144.077 1.578C144.233 1.854 144.311 2.202 144.311 2.622V5.052C144.311 6.024 143.933 6.726 143.177 7.158C142.433 7.578 141.329 7.788 139.865 7.788H138.119V12H136.373V0.317999ZM140.099 6.69C140.855 6.69 141.461 6.552 141.917 6.276C142.373 6 142.601 5.562 142.601 4.962V2.838C142.601 2.514 142.517 2.25 142.349 2.046C142.181 1.83 141.941 1.68 141.629 1.596C141.329 1.524 141.077 1.476 140.873 1.452C140.669 1.428 140.399 1.416 140.063 1.416H138.101V6.69H140.099ZM150.005 12.18C149.009 12.18 147.821 12.084 146.441 11.892V10.434C147.833 10.734 149.057 10.884 150.113 10.884C151.001 10.884 151.649 10.788 152.057 10.596C152.465 10.392 152.669 10.02 152.669 9.48V7.968C152.669 7.464 152.525 7.11 152.237 6.906C151.949 6.702 151.445 6.6 150.725 6.6H149.357C148.217 6.6 147.407 6.372 146.927 5.916C146.447 5.46 146.207 4.752 146.207 3.792V2.856C146.207 2.22 146.345 1.704 146.621 1.308C146.909 0.911999 147.383 0.618 148.043 0.426C148.715 0.233999 149.633 0.137999 150.797 0.137999C151.577 0.137999 152.579 0.204 153.803 0.336V1.65C152.435 1.446 151.391 1.344 150.671 1.344C149.555 1.344 148.817 1.452 148.457 1.668C148.085 1.896 147.899 2.274 147.899 2.802V4.134C147.899 4.542 148.043 4.842 148.331 5.034C148.631 5.214 149.141 5.304 149.861 5.304H151.265C152.069 5.304 152.693 5.4 153.137 5.592C153.593 5.784 153.911 6.078 154.091 6.474C154.283 6.858 154.379 7.38 154.379 8.04V8.886C154.379 9.714 154.223 10.368 153.911 10.848C153.611 11.328 153.143 11.67 152.507 11.874C151.871 12.078 151.037 12.18 150.005 12.18Z" fill="#EEFFF7"/>
</svg>
