<svg width="1053" height="104" viewBox="0 0 1053 104" fill="none" xmlns="http://www.w3.org/2000/svg">
<path d="M22.4075 13.2776H78.2224V30.0221H22.4075C18.6865 30.0221 16.826 31.8826 16.826 35.6036V74.674C16.826 78.395 18.6865 80.2555 22.4075 80.2555H78.2224C81.9434 80.2555 83.8039 78.395 83.8039 74.674V63.511H44.7334L39.152 46.7666H100.548V74.674C100.548 89.558 93.1064 97 78.2224 97H22.4075C7.52349 97 0.081494 89.558 0.081494 74.674V35.6036C0.081494 20.7196 7.52349 13.2776 22.4075 13.2776ZM179.303 69.0925L159.154 34.1524L122.874 97H103.562L159.154 0.663413L214.746 97H195.434L189.015 85.837H147.991L142.41 69.0925H179.303ZM237.295 43.2502V97H220.551V9.76125L273.575 49.5015L326.599 9.76125V97H309.854V43.2502L273.575 70.4321L237.295 43.2502ZM354.506 97H337.762V13.2776H354.506V97ZM382.414 40.4595V97H365.669V6.9705L449.392 69.7623V13.2776H466.136V103.251L382.414 40.4595ZM499.625 13.2776H555.44V30.0221H499.625C495.904 30.0221 494.044 31.8826 494.044 35.6036V74.674C494.044 78.395 495.904 80.2555 499.625 80.2555H555.44C559.161 80.2555 561.022 78.395 561.022 74.674V63.511H521.951L516.37 46.7666H577.766V74.674C577.766 89.558 570.324 97 555.44 97H499.625C484.741 97 477.299 89.558 477.299 74.674V35.6036C477.299 20.7196 484.741 13.2776 499.625 13.2776Z" fill="#EEFFF7"/>
<path d="M634.028 43.2502V97H617.283V9.76125L670.307 49.5015L723.331 9.76125V97H706.587V43.2502L670.307 70.4321L634.028 43.2502ZM818.217 35.6036C818.217 31.8826 816.356 30.0221 812.635 30.0221H756.82C753.099 30.0221 751.239 31.8826 751.239 35.6036V74.674C751.239 78.395 753.099 80.2555 756.82 80.2555H812.635C816.356 80.2555 818.217 78.395 818.217 74.674V35.6036ZM812.635 13.2776C827.519 13.2776 834.961 20.7196 834.961 35.6036V74.674C834.961 89.558 827.519 97 812.635 97H756.82C741.936 97 734.494 89.558 734.494 74.674V35.6036C734.494 20.7196 741.936 13.2776 756.82 13.2776H812.635ZM929.847 35.6036C929.847 31.8826 927.986 30.0221 924.265 30.0221H862.869V80.2555H924.265C927.986 80.2555 929.847 78.395 929.847 74.674V35.6036ZM924.265 13.2776C939.149 13.2776 946.591 20.7196 946.591 35.6036V74.674C946.591 89.558 939.149 97 924.265 97H846.124V13.2776H924.265ZM985.662 63.511L980.08 46.7666H1041.48V63.511H985.662ZM980.08 13.2776H1052.64V30.0221H980.08C976.359 30.0221 974.499 31.8826 974.499 35.6036V74.674C974.499 78.395 976.359 80.2555 980.08 80.2555H1052.64V97H980.08C965.196 97 957.754 89.558 957.754 74.674V35.6036C957.754 20.7196 965.196 13.2776 980.08 13.2776Z" fill="#13F59E"/>
</svg>
