<svg width="259" height="26" viewBox="0 0 259 26" fill="none" xmlns="http://www.w3.org/2000/svg">
<path d="M5.83594 3.49219H19.5078V7.59375H5.83594C4.92448 7.59375 4.46875 8.04948 4.46875 8.96094V18.5312C4.46875 19.4427 4.92448 19.8984 5.83594 19.8984H19.5078C20.4193 19.8984 20.875 19.4427 20.875 18.5312V15.7969H11.3047L9.9375 11.6953H24.9766V18.5312C24.9766 22.1771 23.1536 24 19.5078 24H5.83594C2.1901 24 0.367188 22.1771 0.367188 18.5312V8.96094C0.367188 5.3151 2.1901 3.49219 5.83594 3.49219ZM44.2676 17.1641L39.332 8.60547L30.4453 24H25.7148L39.332 0.402344L52.9492 24H48.2188L46.6465 21.2656H36.5977L35.2305 17.1641H44.2676ZM58.4727 10.834V24H54.3711V2.63086L67.3594 12.3652L80.3477 2.63086V24H76.2461V10.834L67.3594 17.4922L58.4727 10.834ZM87.1836 24H83.082V3.49219H87.1836V24ZM94.0195 10.1504V24H89.918V1.94727L110.426 17.3281V3.49219H114.527V25.5312L94.0195 10.1504ZM122.73 3.49219H136.402V7.59375H122.73C121.819 7.59375 121.363 8.04948 121.363 8.96094V18.5312C121.363 19.4427 121.819 19.8984 122.73 19.8984H136.402C137.314 19.8984 137.77 19.4427 137.77 18.5312V15.7969H128.199L126.832 11.6953H141.871V18.5312C141.871 22.1771 140.048 24 136.402 24H122.73C119.085 24 117.262 22.1771 117.262 18.5312V8.96094C117.262 5.3151 119.085 3.49219 122.73 3.49219Z" fill="#EEFFF7"/>
<path d="M155.652 10.834V24H151.551V2.63086L164.539 12.3652L177.527 2.63086V24H173.426V10.834L164.539 17.4922L155.652 10.834ZM200.77 8.96094C200.77 8.04948 200.314 7.59375 199.402 7.59375H185.73C184.819 7.59375 184.363 8.04948 184.363 8.96094V18.5312C184.363 19.4427 184.819 19.8984 185.73 19.8984H199.402C200.314 19.8984 200.77 19.4427 200.77 18.5312V8.96094ZM199.402 3.49219C203.048 3.49219 204.871 5.3151 204.871 8.96094V18.5312C204.871 22.1771 203.048 24 199.402 24H185.73C182.085 24 180.262 22.1771 180.262 18.5312V8.96094C180.262 5.3151 182.085 3.49219 185.73 3.49219H199.402ZM228.113 8.96094C228.113 8.04948 227.658 7.59375 226.746 7.59375H211.707V19.8984H226.746C227.658 19.8984 228.113 19.4427 228.113 18.5312V8.96094ZM226.746 3.49219C230.392 3.49219 232.215 5.3151 232.215 8.96094V18.5312C232.215 22.1771 230.392 24 226.746 24H207.605V3.49219H226.746ZM241.785 15.7969L240.418 11.6953H255.457V15.7969H241.785ZM240.418 3.49219H258.191V7.59375H240.418C239.507 7.59375 239.051 8.04948 239.051 8.96094V18.5312C239.051 19.4427 239.507 19.8984 240.418 19.8984H258.191V24H240.418C236.772 24 234.949 22.1771 234.949 18.5312V8.96094C234.949 5.3151 236.772 3.49219 240.418 3.49219Z" fill="#13F59E"/>
</svg>
