<svg width="149" height="15" viewBox="0 0 149 15" fill="none" xmlns="http://www.w3.org/2000/svg">
<path d="M3.90625 2.28125H11.7188V4.625H3.90625C3.38542 4.625 3.125 4.88542 3.125 5.40625V10.875C3.125 11.3958 3.38542 11.6562 3.90625 11.6562H11.7188C12.2396 11.6562 12.5 11.3958 12.5 10.875V9.3125H7.03125L6.25 6.96875H14.8438V10.875C14.8438 12.9583 13.8021 14 11.7188 14H3.90625C1.82292 14 0.78125 12.9583 0.78125 10.875V5.40625C0.78125 3.32292 1.82292 2.28125 3.90625 2.28125ZM25.8672 10.0938L23.0469 5.20312L17.9688 14H15.2656L23.0469 0.515625L30.8281 14H28.125L27.2266 12.4375H21.4844L20.7031 10.0938H25.8672ZM33.9844 6.47656V14H31.6406V1.78906L39.0625 7.35156L46.4844 1.78906V14H44.1406V6.47656L39.0625 10.2812L33.9844 6.47656ZM50.3906 14H48.0469V2.28125H50.3906V14ZM54.2969 6.08594V14H51.9531V1.39844L63.6719 10.1875V2.28125H66.0156V14.875L54.2969 6.08594ZM70.7031 2.28125H78.5156V4.625H70.7031C70.1823 4.625 69.9219 4.88542 69.9219 5.40625V10.875C69.9219 11.3958 70.1823 11.6562 70.7031 11.6562H78.5156C79.0365 11.6562 79.2969 11.3958 79.2969 10.875V9.3125H73.8281L73.0469 6.96875H81.6406V10.875C81.6406 12.9583 80.599 14 78.5156 14H70.7031C68.6198 14 67.5781 12.9583 67.5781 10.875V5.40625C67.5781 3.32292 68.6198 2.28125 70.7031 2.28125Z" fill="#EEFFF7"/>
<path d="M89.5156 6.47656V14H87.1719V1.78906L94.5938 7.35156L102.016 1.78906V14H99.6719V6.47656L94.5938 10.2812L89.5156 6.47656ZM115.297 5.40625C115.297 4.88542 115.036 4.625 114.516 4.625H106.703C106.182 4.625 105.922 4.88542 105.922 5.40625V10.875C105.922 11.3958 106.182 11.6562 106.703 11.6562H114.516C115.036 11.6562 115.297 11.3958 115.297 10.875V5.40625ZM114.516 2.28125C116.599 2.28125 117.641 3.32292 117.641 5.40625V10.875C117.641 12.9583 116.599 14 114.516 14H106.703C104.62 14 103.578 12.9583 103.578 10.875V5.40625C103.578 3.32292 104.62 2.28125 106.703 2.28125H114.516ZM130.922 5.40625C130.922 4.88542 130.661 4.625 130.141 4.625H121.547V11.6562H130.141C130.661 11.6562 130.922 11.3958 130.922 10.875V5.40625ZM130.141 2.28125C132.224 2.28125 133.266 3.32292 133.266 5.40625V10.875C133.266 12.9583 132.224 14 130.141 14H119.203V2.28125H130.141ZM138.734 9.3125L137.953 6.96875H146.547V9.3125H138.734ZM137.953 2.28125H148.109V4.625H137.953C137.432 4.625 137.172 4.88542 137.172 5.40625V10.875C137.172 11.3958 137.432 11.6562 137.953 11.6562H148.109V14H137.953C135.87 14 134.828 12.9583 134.828 10.875V5.40625C134.828 3.32292 135.87 2.28125 137.953 2.28125Z" fill="#13F59E"/>
</svg>
