<svg width="149" height="12" viewBox="0 0 149 12" fill="none" xmlns="http://www.w3.org/2000/svg">
<path d="M2.928 2.028H0.288V1.212H6.732V2.028H4.104V9H2.928V2.028ZM7.95553 0.599999H9.03553V3.9C9.14753 3.348 9.78353 3.072 10.9435 3.072C11.6875 3.072 12.2075 3.208 12.5035 3.48C12.8075 3.744 12.9595 4.164 12.9595 4.74V9H11.8795V4.812C11.8795 4.66 11.8675 4.536 11.8435 4.44C11.8195 4.344 11.7715 4.248 11.6995 4.152C11.5395 3.952 11.1835 3.852 10.6315 3.852C10.1915 3.852 9.85553 3.884 9.62353 3.948C9.39953 4.004 9.24353 4.1 9.15553 4.236C9.07553 4.372 9.03553 4.564 9.03553 4.812V9H7.95553V0.599999ZM14.8344 1.092H15.9144V2.22H14.8344V1.092ZM14.8344 3.192H15.9144V9H14.8344V3.192ZM19.5636 9.12C18.9476 9.12 18.2836 9.072 17.5716 8.976V8.148C18.5076 8.3 19.1796 8.376 19.5876 8.376C20.0996 8.376 20.4676 8.328 20.6916 8.232C20.9156 8.128 21.0276 7.94 21.0276 7.668V7.08C21.0276 6.832 20.9436 6.656 20.7756 6.552C20.6076 6.448 20.3356 6.396 19.9596 6.396H19.2996C18.6996 6.396 18.2396 6.272 17.9196 6.024C17.6076 5.776 17.4516 5.428 17.4516 4.98V4.44C17.4516 3.528 18.3156 3.072 20.0436 3.072C20.1716 3.072 20.7596 3.104 21.8076 3.168V3.948C21.0956 3.836 20.4916 3.78 19.9956 3.78C19.4276 3.78 19.0396 3.836 18.8316 3.948C18.6236 4.06 18.5196 4.248 18.5196 4.512V5.004C18.5196 5.396 18.8756 5.592 19.5876 5.592H20.2596C21.4836 5.592 22.0956 6.048 22.0956 6.96V7.464C22.0956 8.064 21.8876 8.492 21.4716 8.748C21.0556 8.996 20.4196 9.12 19.5636 9.12ZM28.142 9.12C27.59 9.12 27.162 9.068 26.858 8.964C26.562 8.86 26.346 8.676 26.21 8.412C26.082 8.148 26.018 7.768 26.018 7.272C26.018 6.832 26.078 6.492 26.198 6.252C26.326 6.004 26.538 5.828 26.834 5.724C27.138 5.62 27.566 5.568 28.118 5.568H29.858V4.644C29.858 4.428 29.814 4.264 29.726 4.152C29.646 4.032 29.506 3.948 29.306 3.9C29.114 3.852 28.83 3.828 28.454 3.828C27.854 3.828 27.19 3.876 26.462 3.972V3.18C27.254 3.108 27.97 3.072 28.61 3.072C29.282 3.072 29.778 3.124 30.098 3.228C30.418 3.324 30.638 3.496 30.758 3.744C30.878 3.992 30.938 4.376 30.938 4.896V9H29.894V8.448C29.806 8.896 29.222 9.12 28.142 9.12ZM28.322 8.412C28.714 8.412 29.046 8.384 29.318 8.328C29.678 8.256 29.858 8.088 29.858 7.824V6.24H28.19C27.846 6.24 27.598 6.268 27.446 6.324C27.294 6.372 27.194 6.468 27.146 6.612C27.098 6.756 27.074 6.988 27.074 7.308C27.074 7.596 27.102 7.82 27.158 7.98C27.214 8.132 27.314 8.244 27.458 8.316C27.602 8.38 27.818 8.412 28.106 8.412H28.322ZM35.151 9.12C34.751 9.12 34.459 9.112 34.275 9.096C34.099 9.08 33.895 9.04 33.663 8.976C33.415 8.912 33.223 8.816 33.087 8.688C32.951 8.56 32.835 8.372 32.739 8.124C32.643 7.884 32.595 7.584 32.595 7.224V5.088C32.595 4.44 32.719 3.976 32.967 3.696C33.103 3.536 33.239 3.416 33.375 3.336C33.519 3.248 33.703 3.188 33.927 3.156C34.151 3.124 34.351 3.104 34.527 3.096C34.703 3.08 34.951 3.072 35.271 3.072C35.823 3.072 36.375 3.132 36.927 3.252V4.044C36.287 3.884 35.691 3.804 35.139 3.804C34.723 3.804 34.415 3.836 34.215 3.9C34.023 3.956 33.887 4.064 33.807 4.224C33.735 4.376 33.699 4.612 33.699 4.932V7.308C33.699 7.604 33.739 7.824 33.819 7.968C33.907 8.112 34.059 8.216 34.275 8.28C34.499 8.336 34.827 8.364 35.259 8.364C35.843 8.364 36.427 8.288 37.011 8.136V8.952C36.467 9.064 35.847 9.12 35.151 9.12ZM40.8134 9.12C40.3174 9.12 39.9294 9.068 39.6494 8.964C39.3694 8.852 39.1654 8.668 39.0374 8.412C38.9174 8.148 38.8574 7.78 38.8574 7.308V3.9H37.5614V3.192H38.8574V1.392H39.9494V3.192H42.0254V3.9H39.9494V7.368C39.9494 7.656 39.9814 7.872 40.0454 8.016C40.1174 8.16 40.2374 8.264 40.4054 8.328C40.5814 8.384 40.8334 8.412 41.1614 8.412C41.2654 8.412 41.5534 8.38 42.0254 8.316V9.024C41.6174 9.088 41.2134 9.12 40.8134 9.12ZM43.2055 1.092H44.2855V2.22H43.2055V1.092ZM43.2055 3.192H44.2855V9H43.2055V3.192ZM48.6187 9.12C48.1067 9.12 47.7227 9.1 47.4667 9.06C47.2107 9.028 46.9547 8.952 46.6987 8.832C46.4347 8.712 46.2427 8.52 46.1227 8.256C46.0027 7.984 45.9427 7.62 45.9427 7.164V5.148C45.9427 4.788 45.9867 4.472 46.0747 4.2C46.1627 3.928 46.2787 3.716 46.4227 3.564C46.5427 3.428 46.7227 3.324 46.9627 3.252C47.2107 3.172 47.4627 3.12 47.7187 3.096C48.0067 3.08 48.3067 3.072 48.6187 3.072C49.0347 3.072 49.3467 3.084 49.5547 3.108C49.7707 3.124 49.9987 3.164 50.2387 3.228C50.4867 3.3 50.6787 3.408 50.8147 3.552C50.9507 3.696 51.0667 3.904 51.1627 4.176C51.2507 4.456 51.2947 4.78 51.2947 5.148V7.164C51.2947 7.844 51.1387 8.34 50.8267 8.652C50.6987 8.78 50.5147 8.88 50.2747 8.952C50.0347 9.024 49.7867 9.072 49.5307 9.096C49.2267 9.112 48.9227 9.12 48.6187 9.12ZM48.6187 8.412C48.9547 8.412 49.1987 8.404 49.3507 8.388C49.5027 8.372 49.6507 8.328 49.7947 8.256C49.9387 8.192 50.0387 8.088 50.0947 7.944C50.1587 7.792 50.1907 7.584 50.1907 7.32V4.968C50.1907 4.608 50.1467 4.348 50.0587 4.188C49.9707 4.02 49.8187 3.912 49.6027 3.864C49.3947 3.808 49.0667 3.78 48.6187 3.78C48.1707 3.78 47.8387 3.808 47.6227 3.864C47.4147 3.912 47.2667 4.02 47.1787 4.188C47.0907 4.348 47.0467 4.608 47.0467 4.968V7.32C47.0467 7.584 47.0747 7.792 47.1307 7.944C47.1947 8.088 47.2987 8.192 47.4427 8.256C47.5867 8.328 47.7347 8.372 47.8867 8.388C48.0387 8.404 48.2827 8.412 48.6187 8.412ZM52.979 3.192H54.059V3.9C54.171 3.348 54.807 3.072 55.967 3.072C56.711 3.072 57.231 3.208 57.527 3.48C57.831 3.744 57.983 4.164 57.983 4.74V9H56.903V4.8C56.903 4.648 56.891 4.524 56.867 4.428C56.843 4.332 56.795 4.236 56.723 4.14C56.563 3.94 56.207 3.84 55.655 3.84C55.231 3.84 54.903 3.872 54.671 3.936C54.447 3.992 54.287 4.088 54.191 4.224C54.103 4.36 54.059 4.552 54.059 4.8V9H52.979V3.192ZM62.6235 3.192H63.7035V3.9C63.8155 3.348 64.4675 3.072 65.6595 3.072C66.6275 3.072 67.2315 3.336 67.4715 3.864C67.5435 3.608 67.7595 3.412 68.1195 3.276C68.4875 3.14 68.9355 3.072 69.4635 3.072C70.1835 3.072 70.6915 3.208 70.9875 3.48C71.2835 3.744 71.4315 4.164 71.4315 4.74V9H70.3515V4.812C70.3515 4.66 70.3395 4.536 70.3155 4.44C70.2915 4.344 70.2435 4.248 70.1715 4.152C70.0115 3.952 69.6555 3.852 69.1035 3.852C68.6795 3.852 68.3635 3.88 68.1555 3.936C67.9475 3.992 67.8035 4.088 67.7235 4.224C67.6515 4.36 67.6155 4.556 67.6155 4.812V9H66.5355V4.812C66.5355 4.66 66.5235 4.536 66.4995 4.44C66.4755 4.344 66.4275 4.248 66.3555 4.152C66.1955 3.952 65.8435 3.852 65.2995 3.852C64.8595 3.852 64.5275 3.88 64.3035 3.936C64.0795 3.992 63.9235 4.088 63.8355 4.224C63.7475 4.352 63.7035 4.548 63.7035 4.812V9H62.6235V3.192ZM75.0873 9.12C74.5353 9.12 74.1073 9.068 73.8033 8.964C73.5073 8.86 73.2913 8.676 73.1553 8.412C73.0273 8.148 72.9633 7.768 72.9633 7.272C72.9633 6.832 73.0233 6.492 73.1433 6.252C73.2713 6.004 73.4833 5.828 73.7793 5.724C74.0833 5.62 74.5113 5.568 75.0633 5.568H76.8033V4.644C76.8033 4.428 76.7593 4.264 76.6713 4.152C76.5913 4.032 76.4513 3.948 76.2513 3.9C76.0593 3.852 75.7753 3.828 75.3993 3.828C74.7993 3.828 74.1353 3.876 73.4073 3.972V3.18C74.1993 3.108 74.9153 3.072 75.5553 3.072C76.2273 3.072 76.7233 3.124 77.0433 3.228C77.3633 3.324 77.5833 3.496 77.7033 3.744C77.8233 3.992 77.8833 4.376 77.8833 4.896V9H76.8393V8.448C76.7513 8.896 76.1673 9.12 75.0873 9.12ZM75.2673 8.412C75.6593 8.412 75.9913 8.384 76.2633 8.328C76.6233 8.256 76.8033 8.088 76.8033 7.824V6.24H75.1353C74.7913 6.24 74.5433 6.268 74.3913 6.324C74.2393 6.372 74.1393 6.468 74.0913 6.612C74.0433 6.756 74.0193 6.988 74.0193 7.308C74.0193 7.596 74.0473 7.82 74.1033 7.98C74.1593 8.132 74.2593 8.244 74.4033 8.316C74.5473 8.38 74.7633 8.412 75.0513 8.412H75.2673ZM81.1363 9.084L78.8923 3.192H80.0683L81.6883 7.932H81.7123L83.1763 3.192H84.2683L81.3523 11.496H80.2243L81.1363 9.084ZM90.3815 9.12C89.9815 9.12 89.6895 9.112 89.5055 9.096C89.3295 9.08 89.1255 9.04 88.8935 8.976C88.6455 8.912 88.4535 8.816 88.3175 8.688C88.1815 8.56 88.0655 8.372 87.9695 8.124C87.8735 7.884 87.8255 7.584 87.8255 7.224V5.088C87.8255 4.44 87.9495 3.976 88.1975 3.696C88.3335 3.536 88.4695 3.416 88.6055 3.336C88.7495 3.248 88.9335 3.188 89.1575 3.156C89.3815 3.124 89.5815 3.104 89.7575 3.096C89.9335 3.08 90.1815 3.072 90.5015 3.072C91.0535 3.072 91.6055 3.132 92.1575 3.252V4.044C91.5175 3.884 90.9215 3.804 90.3695 3.804C89.9535 3.804 89.6455 3.836 89.4455 3.9C89.2535 3.956 89.1175 4.064 89.0375 4.224C88.9655 4.376 88.9295 4.612 88.9295 4.932V7.308C88.9295 7.604 88.9695 7.824 89.0495 7.968C89.1375 8.112 89.2895 8.216 89.5055 8.28C89.7295 8.336 90.0575 8.364 90.4895 8.364C91.0735 8.364 91.6575 8.288 92.2415 8.136V8.952C91.6975 9.064 91.0775 9.12 90.3815 9.12ZM96.0679 9.12C95.5559 9.12 95.1719 9.1 94.9159 9.06C94.6599 9.028 94.4039 8.952 94.1479 8.832C93.8839 8.712 93.6919 8.52 93.5719 8.256C93.4519 7.984 93.3919 7.62 93.3919 7.164V5.148C93.3919 4.788 93.4359 4.472 93.5239 4.2C93.6119 3.928 93.7279 3.716 93.8719 3.564C93.9919 3.428 94.1719 3.324 94.4119 3.252C94.6599 3.172 94.9119 3.12 95.1679 3.096C95.4559 3.08 95.7559 3.072 96.0679 3.072C96.4839 3.072 96.7959 3.084 97.0039 3.108C97.2199 3.124 97.4479 3.164 97.6879 3.228C97.9359 3.3 98.1279 3.408 98.2639 3.552C98.3999 3.696 98.5159 3.904 98.6119 4.176C98.6999 4.456 98.7439 4.78 98.7439 5.148V7.164C98.7439 7.844 98.5879 8.34 98.2759 8.652C98.1479 8.78 97.9639 8.88 97.7239 8.952C97.4839 9.024 97.2359 9.072 96.9799 9.096C96.6759 9.112 96.3719 9.12 96.0679 9.12ZM96.0679 8.412C96.4039 8.412 96.6479 8.404 96.7999 8.388C96.9519 8.372 97.0999 8.328 97.2439 8.256C97.3879 8.192 97.4879 8.088 97.5439 7.944C97.6079 7.792 97.6399 7.584 97.6399 7.32V4.968C97.6399 4.608 97.5959 4.348 97.5079 4.188C97.4199 4.02 97.2679 3.912 97.0519 3.864C96.8439 3.808 96.5159 3.78 96.0679 3.78C95.6199 3.78 95.2879 3.808 95.0719 3.864C94.8639 3.912 94.7159 4.02 94.6279 4.188C94.5399 4.348 94.4959 4.608 94.4959 4.968V7.32C94.4959 7.584 94.5239 7.792 94.5799 7.944C94.6439 8.088 94.7479 8.192 94.8919 8.256C95.0359 8.328 95.1839 8.372 95.3359 8.388C95.4879 8.404 95.7319 8.412 96.0679 8.412ZM100.428 3.192H101.508V3.9C101.62 3.348 102.256 3.072 103.416 3.072C104.16 3.072 104.68 3.208 104.976 3.48C105.28 3.744 105.432 4.164 105.432 4.74V9H104.352V4.8C104.352 4.648 104.34 4.524 104.316 4.428C104.292 4.332 104.244 4.236 104.172 4.14C104.012 3.94 103.656 3.84 103.104 3.84C102.68 3.84 102.352 3.872 102.12 3.936C101.896 3.992 101.736 4.088 101.64 4.224C101.552 4.36 101.508 4.552 101.508 4.8V9H100.428V3.192ZM109.743 9.12C109.247 9.12 108.859 9.068 108.579 8.964C108.299 8.852 108.095 8.668 107.967 8.412C107.847 8.148 107.787 7.78 107.787 7.308V3.9H106.491V3.192H107.787V1.392H108.879V3.192H110.955V3.9H108.879V7.368C108.879 7.656 108.911 7.872 108.975 8.016C109.047 8.16 109.167 8.264 109.335 8.328C109.511 8.384 109.763 8.412 110.091 8.412C110.195 8.412 110.483 8.38 110.955 8.316V9.024C110.547 9.088 110.143 9.12 109.743 9.12ZM113.923 9.12C113.371 9.12 112.943 9.068 112.639 8.964C112.343 8.86 112.127 8.676 111.991 8.412C111.863 8.148 111.799 7.768 111.799 7.272C111.799 6.832 111.859 6.492 111.979 6.252C112.107 6.004 112.319 5.828 112.615 5.724C112.919 5.62 113.347 5.568 113.899 5.568H115.639V4.644C115.639 4.428 115.595 4.264 115.507 4.152C115.427 4.032 115.287 3.948 115.087 3.9C114.895 3.852 114.611 3.828 114.235 3.828C113.635 3.828 112.971 3.876 112.243 3.972V3.18C113.035 3.108 113.751 3.072 114.391 3.072C115.063 3.072 115.559 3.124 115.879 3.228C116.199 3.324 116.419 3.496 116.539 3.744C116.659 3.992 116.719 4.376 116.719 4.896V9H115.675V8.448C115.587 8.896 115.003 9.12 113.923 9.12ZM114.103 8.412C114.495 8.412 114.827 8.384 115.099 8.328C115.459 8.256 115.639 8.088 115.639 7.824V6.24H113.971C113.627 6.24 113.379 6.268 113.227 6.324C113.075 6.372 112.975 6.468 112.927 6.612C112.879 6.756 112.855 6.988 112.855 7.308C112.855 7.596 112.883 7.82 112.939 7.98C112.995 8.132 113.095 8.244 113.239 8.316C113.383 8.38 113.599 8.412 113.887 8.412H114.103ZM118.592 1.092H119.672V2.22H118.592V1.092ZM118.592 3.192H119.672V9H118.592V3.192ZM121.545 3.192H122.625V3.9C122.737 3.348 123.373 3.072 124.533 3.072C125.277 3.072 125.797 3.208 126.093 3.48C126.397 3.744 126.549 4.164 126.549 4.74V9H125.469V4.8C125.469 4.648 125.457 4.524 125.433 4.428C125.409 4.332 125.361 4.236 125.289 4.14C125.129 3.94 124.773 3.84 124.221 3.84C123.797 3.84 123.469 3.872 123.237 3.936C123.013 3.992 122.853 4.088 122.757 4.224C122.669 4.36 122.625 4.552 122.625 4.8V9H121.545V3.192ZM132.978 9.12C132.426 9.12 131.998 9.068 131.694 8.964C131.398 8.86 131.182 8.676 131.046 8.412C130.918 8.148 130.854 7.768 130.854 7.272C130.854 6.832 130.914 6.492 131.034 6.252C131.162 6.004 131.374 5.828 131.67 5.724C131.974 5.62 132.402 5.568 132.954 5.568H134.694V4.644C134.694 4.428 134.65 4.264 134.562 4.152C134.482 4.032 134.342 3.948 134.142 3.9C133.95 3.852 133.666 3.828 133.29 3.828C132.69 3.828 132.026 3.876 131.298 3.972V3.18C132.09 3.108 132.806 3.072 133.446 3.072C134.118 3.072 134.614 3.124 134.934 3.228C135.254 3.324 135.474 3.496 135.594 3.744C135.714 3.992 135.774 4.376 135.774 4.896V9H134.73V8.448C134.642 8.896 134.058 9.12 132.978 9.12ZM133.158 8.412C133.55 8.412 133.882 8.384 134.154 8.328C134.514 8.256 134.694 8.088 134.694 7.824V6.24H133.026C132.682 6.24 132.434 6.268 132.282 6.324C132.13 6.372 132.03 6.468 131.982 6.612C131.934 6.756 131.91 6.988 131.91 7.308C131.91 7.596 131.938 7.82 131.994 7.98C132.05 8.132 132.15 8.244 132.294 8.316C132.438 8.38 132.654 8.412 132.942 8.412H133.158ZM139.723 9.12C139.147 9.12 138.695 9.064 138.367 8.952C138.039 8.832 137.799 8.64 137.647 8.376C137.503 8.112 137.431 7.744 137.431 7.272V4.716C137.431 4.132 137.611 3.712 137.971 3.456C138.339 3.2 138.943 3.072 139.783 3.072C140.287 3.072 140.719 3.136 141.079 3.264C141.447 3.392 141.635 3.576 141.643 3.816H141.667L141.643 2.34V0.599999H142.723V9H141.667V8.316C141.667 8.532 141.495 8.716 141.151 8.868C140.807 9.036 140.331 9.12 139.723 9.12ZM139.951 8.376C140.551 8.376 140.983 8.308 141.247 8.172C141.511 8.036 141.643 7.804 141.643 7.476V4.608C141.643 4.088 141.111 3.828 140.047 3.828C139.407 3.828 138.991 3.876 138.799 3.972C138.599 4.068 138.499 4.28 138.499 4.608V7.476C138.499 7.804 138.607 8.036 138.823 8.172C139.047 8.308 139.423 8.376 139.951 8.376ZM146.278 9.12C145.662 9.12 144.998 9.072 144.286 8.976V8.148C145.222 8.3 145.894 8.376 146.302 8.376C146.814 8.376 147.182 8.328 147.406 8.232C147.63 8.128 147.742 7.94 147.742 7.668V7.08C147.742 6.832 147.658 6.656 147.49 6.552C147.322 6.448 147.05 6.396 146.674 6.396H146.014C145.414 6.396 144.954 6.272 144.634 6.024C144.322 5.776 144.166 5.428 144.166 4.98V4.44C144.166 3.528 145.03 3.072 146.758 3.072C146.886 3.072 147.474 3.104 148.522 3.168V3.948C147.81 3.836 147.206 3.78 146.71 3.78C146.142 3.78 145.754 3.836 145.546 3.948C145.338 4.06 145.234 4.248 145.234 4.512V5.004C145.234 5.396 145.59 5.592 146.302 5.592H146.974C148.198 5.592 148.81 6.048 148.81 6.96V7.464C148.81 8.064 148.602 8.492 148.186 8.748C147.77 8.996 147.134 9.12 146.278 9.12Z" fill="#8B9F95"/>
</svg>
