<svg width="24" height="24" viewBox="0 0 24 24" fill="none" xmlns="http://www.w3.org/2000/svg">
<path d="M1.0839 11.7924L7.35885 5.34052C7.41229 5.28566 7.48472 5.25486 7.56023 5.25488H12.6943C12.8095 5.25488 12.9139 5.32644 12.9578 5.43611C13.0018 5.54579 12.9772 5.67132 12.8962 5.75578L6.82264 12L12.8962 18.2442C12.9362 18.2852 12.9633 18.3375 12.9743 18.3944C12.9853 18.4513 12.9795 18.5103 12.9578 18.5639C12.9133 18.6736 12.8095 18.7451 12.6943 18.7451H7.56023C7.48437 18.7451 7.4119 18.714 7.35829 18.6595L1.08333 12.2076C1.05685 12.1803 1.03586 12.1479 1.02155 12.1123C1.00725 12.0766 0.999915 12.0384 0.999968 11.9999C1.00002 11.9613 1.00746 11.9231 1.02186 11.8875C1.03626 11.8519 1.05734 11.8196 1.0839 11.7924Z" fill="#13F59E"/>
<path d="M11.1042 11.7924L17.3791 5.34052C17.4326 5.28566 17.505 5.25486 17.5805 5.25488H22.7145C22.8298 5.25488 22.9342 5.32644 22.9781 5.43611C23.022 5.54579 22.9975 5.67132 22.9165 5.75578L16.8429 12L22.9165 18.2442C22.9564 18.2852 22.9836 18.3375 22.9946 18.3944C23.0055 18.4513 22.9998 18.5103 22.9781 18.5639C22.9336 18.6736 22.8298 18.7451 22.7145 18.7451H17.5805C17.5046 18.7451 17.4322 18.714 17.3786 18.6595L11.1036 12.2076C11.0771 12.1803 11.0561 12.1479 11.0418 12.1123C11.0275 12.0766 11.0202 12.0384 11.0202 11.9999C11.0203 11.9613 11.0277 11.9231 11.0421 11.8875C11.0565 11.8519 11.0776 11.8196 11.1042 11.7924Z" fill="#13F59E"/>
</svg>
