<svg width="86" height="86" viewBox="0 0 86 86" fill="none" xmlns="http://www.w3.org/2000/svg">
<g clip-path="url(#clip0_11_178)">
<path d="M86.0001 61.1037C85.7985 49.8834 84.4733 38.5371 82.2998 27.085C80.5294 19.1283 74.16 12.0417 63.9828 11.5227C56.4695 11.2136 55.0166 15.4935 46.5039 15.4112C44.1725 15.396 41.8428 15.396 39.5114 15.4112C30.9971 15.4935 29.5408 11.2136 22.0309 11.5227C11.852 12.0417 5.2844 19.1098 3.70717 27.085C1.53198 38.5371 0.206704 49.8817 0.00682139 61.102C-0.0418895 68.9142 7.67124 74.1112 12.7607 74.4673C22.5919 75.2097 30.4024 57.8737 36.3536 57.872C40.7896 57.8972 45.224 57.8989 49.6601 57.872C55.6129 57.872 63.4167 75.2114 73.2546 74.469C78.3424 74.1129 86.2554 68.8807 86.0018 61.1037H86.0001ZM32.0721 39.2107H27.4865V43.7962C27.4865 45.7312 25.9177 47.3 23.9827 47.3C22.0477 47.3 20.4789 45.7312 20.4789 43.7962V39.2107H15.8933C13.9583 39.2107 12.3895 37.6418 12.3895 35.7068C12.3895 33.7718 13.9583 32.203 15.8933 32.203H20.4789V27.6175C20.4789 25.6825 22.0477 24.1136 23.9827 24.1136C25.9177 24.1136 27.4865 25.6825 27.4865 27.6175V32.203H32.0721C34.0071 32.203 35.5759 33.7718 35.5759 35.7068C35.5759 37.6418 34.0071 39.2107 32.0721 39.2107ZM60.3866 47.2984C57.6436 47.3723 55.3626 45.2055 55.2887 42.4642C55.2165 39.7129 57.3849 37.4285 60.1262 37.358C62.8708 37.2891 65.1552 39.4542 65.2257 42.1988C65.2946 44.9434 63.1295 47.2278 60.3866 47.2984ZM68.659 34.054C65.9161 34.1313 63.63 31.9628 63.5544 29.2199C63.4856 26.4719 65.6507 24.1909 68.3953 24.1153C71.1433 24.0431 73.4243 26.2116 73.4982 28.9562C73.5704 31.6991 71.4003 33.9851 68.659 34.054Z" fill="url(#paint0_linear_11_178)"/>
</g>
<defs>
<linearGradient id="paint0_linear_11_178" x1="43.0072" y1="11.5067" x2="43.0072" y2="74.4922" gradientUnits="userSpaceOnUse">
<stop stop-color="#32FFB0"/>
<stop offset="1" stop-color="#B3FD2B"/>
</linearGradient>
<clipPath id="clip0_11_178">
<rect width="86" height="86" fill="white"/>
</clipPath>
</defs>
</svg>
