<svg width="24" height="24" viewBox="0 0 24 24" fill="none" xmlns="http://www.w3.org/2000/svg">
<path d="M15.9244 21.9815H8.07564C7.04388 21.9815 5.83232 21.2822 5.31716 20.3889L1.39279 13.5933C0.869069 12.6857 0.869069 11.3158 1.39279 10.4074L5.31787 3.61186C5.83304 2.71853 7.0446 2.01928 8.07635 2.01928H15.9244C16.9561 2.01928 18.1677 2.71853 18.6828 3.61186L22.6072 10.4074C23.1309 11.315 23.1309 12.685 22.6072 13.5933L18.6821 20.3889C18.1677 21.2822 16.9554 21.9815 15.9244 21.9815ZM8.07564 3.44561C7.54406 3.44561 6.81841 3.86445 6.55298 4.32467L2.6279 11.1202C2.36247 11.5805 2.36247 12.4189 2.6279 12.8791L6.55227 19.6747C6.81841 20.1356 7.54406 20.5537 8.07492 20.5537H15.9244C16.4559 20.5537 17.1816 20.1349 17.447 19.6747L21.3721 12.8791C21.6375 12.4189 21.6375 11.5805 21.3721 11.1202L17.4477 4.32467C17.1816 3.86373 16.4559 3.44561 15.9251 3.44561H8.07564ZM12 16.2212C9.67178 16.2212 7.7781 14.3275 7.7781 12C7.7781 9.67251 9.67178 7.77883 12 7.77883C14.3282 7.77883 16.2219 9.67251 16.2219 12C16.2219 14.3275 14.3282 16.2212 12 16.2212ZM12 9.20587C10.4588 9.20587 9.20514 10.4595 9.20514 12C9.20514 13.5405 10.4588 14.7942 12 14.7942C13.5412 14.7942 14.7949 13.5405 14.7949 12C14.7949 10.4595 13.5412 9.20587 12 9.20587Z" fill="#EEFFF7"/>
</svg>
