<svg width="16" height="16" viewBox="0 0 16 16" fill="none" xmlns="http://www.w3.org/2000/svg">
<path d="M10.6162 14.6543H5.38375C4.69591 14.6543 3.88821 14.1881 3.54476 13.5926L0.928519 9.06221C0.579369 8.45715 0.579369 7.54384 0.928519 6.9383L3.54524 2.40791C3.88868 1.81236 4.69639 1.34619 5.38422 1.34619H10.6162C11.3041 1.34619 12.1118 1.81236 12.4552 2.40791L15.0715 6.9383C15.4206 7.54336 15.4206 8.45667 15.0715 9.06221L12.4547 13.5926C12.1118 14.1881 11.3036 14.6543 10.6162 14.6543ZM5.38375 2.29708C5.02936 2.29708 4.5456 2.5763 4.36864 2.88312L1.75192 7.4135C1.57497 7.72032 1.57497 8.27924 1.75192 8.58606L4.36817 13.1164C4.5456 13.4237 5.02936 13.7025 5.38327 13.7025H10.6162C10.9706 13.7025 11.4544 13.4233 11.6313 13.1164L14.2481 8.58606C14.425 8.27924 14.425 7.72032 14.2481 7.4135L11.6318 2.88312C11.4544 2.57583 10.9706 2.29708 10.6167 2.29708H5.38375ZM7.99999 10.8141C6.44784 10.8141 5.18539 9.55169 5.18539 8.00002C5.18539 6.44834 6.44784 5.18589 7.99999 5.18589C9.55214 5.18589 10.8146 6.44834 10.8146 8.00002C10.8146 9.55169 9.55214 10.8141 7.99999 10.8141ZM7.99999 6.13725C6.97252 6.13725 6.13675 6.97302 6.13675 8.00002C6.13675 9.02701 6.97252 9.86278 7.99999 9.86278C9.02746 9.86278 9.86323 9.02701 9.86323 8.00002C9.86323 6.97302 9.02746 6.13725 7.99999 6.13725Z" fill="#13F59E" stroke="#13F59E" stroke-width="0.5"/>
</svg>
